<svg xmlns="http://www.w3.org/2000/svg" width="305" height="370" viewBox="0 0 305 370"><title>2 of clubs</title><rect x="1" y="1" width="303" height="368" rx="21" fill="#fff" stroke="#e5e5e5" stroke-width="2"/><g fill="#252525"><path d="M508 -539Q508 -511 503.0 -488.5Q498 -466 480.5 -441.5Q463 -417 446.5 -398.0Q430 -379 390 -348Q330 -300 264.0 -252.5Q198 -205 187 -197L126 -153H366Q435 -153 464.0 -183.0Q493 -213 505 -277H522L512 0H42V-116L143 -209Q246 -303 289.0 -376.5Q332 -450 332.0 -538.5Q332 -627 313.0 -659.5Q294 -692 249.0 -692.0Q204 -692 186.0 -669.0Q168 -646 168.0 -625.0Q168 -604 174 -588H204Q212 -567 212.0 -537.5Q212 -508 187.0 -486.5Q162 -465 121.0 -465.0Q80 -465 57.5 -491.5Q35 -518 35 -558Q35 -625 93.0 -668.0Q151 -711 267.0 -711.0Q383 -711 445.5 -668.0Q508 -625 508 -539Z" transform="matrix(0.149086 0 0 0.149086 36.782 162.000)"/><path d="M50 0C24 0 19 30 34 42C10 31 -4 51 4 72C10 90 32 92 44 76C43 88 39 96 33 100H67C61 96 57 88 56 76C68 92 90 90 96 72C104 51 90 31 66 42C81 30 76 0 50 0Z" transform="translate(133 192) scale(1.45)"/></g></svg>
