<svg xmlns="http://www.w3.org/2000/svg" width="305" height="370" viewBox="0 0 305 370"><title>2 of hearts</title><rect x="1" y="1" width="303" height="368" rx="21" fill="#fff" stroke="#e5e5e5" stroke-width="2"/><g fill="#df292e"><path d="M508 -539Q508 -511 503.0 -488.5Q498 -466 480.5 -441.5Q463 -417 446.5 -398.0Q430 -379 390 -348Q330 -300 264.0 -252.5Q198 -205 187 -197L126 -153H366Q435 -153 464.0 -183.0Q493 -213 505 -277H522L512 0H42V-116L143 -209Q246 -303 289.0 -376.5Q332 -450 332.0 -538.5Q332 -627 313.0 -659.5Q294 -692 249.0 -692.0Q204 -692 186.0 -669.0Q168 -646 168.0 -625.0Q168 -604 174 -588H204Q212 -567 212.0 -537.5Q212 -508 187.0 -486.5Q162 -465 121.0 -465.0Q80 -465 57.5 -491.5Q35 -518 35 -558Q35 -625 93.0 -668.0Q151 -711 267.0 -711.0Q383 -711 445.5 -668.0Q508 -625 508 -539Z" transform="matrix(0.119550 0 0 0.119550 11.816 105.000)"/><path d="M50 94C40 79 3 55 3 30C3 3 36 -3 50 19C64 -3 97 3 97 30C97 55 60 79 50 94Z" transform="translate(17 119) scale(.66)"/><path d="M50 94C40 79 3 55 3 30C3 3 36 -3 50 19C64 -3 97 3 97 30C97 55 60 79 50 94Z" transform="translate(118 185) scale(1.52)"/></g></svg>
