<svg xmlns="http://www.w3.org/2000/svg" width="305" height="370" viewBox="0 0 305 370"><title>6 of spades</title><rect x="1" y="1" width="303" height="368" rx="21" fill="#fff" stroke="#e5e5e5" stroke-width="2"/><g fill="#252525"><path d="M34 -308Q34 -501 120.5 -606.0Q207 -711 358 -711Q461 -711 516.0 -669.5Q571 -628 571 -561Q571 -523 546.5 -495.5Q522 -468 482.0 -468.0Q442 -468 418.0 -489.5Q394 -511 394.0 -540.5Q394 -570 402 -592H434Q440 -608 440 -628Q440 -691 369.0 -691.0Q298 -691 265.0 -617.5Q232 -544 231 -364Q283 -445 382.0 -445.0Q481 -445 538.0 -391.5Q595 -338 595.0 -231.0Q595 -124 520.0 -57.0Q445 10 319 10Q34 10 34 -308ZM258 -37Q274 -11 309.0 -11.0Q344 -11 361.5 -24.5Q379 -38 387 -70Q399 -117 399.0 -187.0Q399 -257 398.5 -280.0Q398 -303 396.0 -328.5Q394 -354 389.5 -367.0Q385 -380 378 -392Q365 -412 331.0 -412.0Q297 -412 273.5 -386.5Q250 -361 241.5 -326.5Q233 -292 233.0 -236.5Q233 -181 233.5 -159.5Q234 -138 236.5 -108.5Q239 -79 244.0 -65.5Q249 -52 258 -37Z" transform="matrix(0.119550 0 0 0.119550 11.935 105.000)"/><path d="M50 0C39 17 3 43 3 65C3 88 31 96 44 78C43 89 39 96 34 100H66C61 96 57 89 56 78C69 96 97 88 97 65C97 43 61 17 50 0Z" transform="translate(17 119) scale(.66)"/><path d="M50 0C39 17 3 43 3 65C3 88 31 96 44 78C43 89 39 96 34 100H66C61 96 57 89 56 78C69 96 97 88 97 65C97 43 61 17 50 0Z" transform="translate(118 185) scale(1.52)"/></g></svg>
