<svg xmlns="http://www.w3.org/2000/svg" width="305" height="370" viewBox="0 0 305 370"><title>7 of clubs</title><rect x="1" y="1" width="303" height="368" rx="21" fill="#fff" stroke="#e5e5e5" stroke-width="2"/><g fill="#252525"><path d="M277 -356 442 -547H186Q115 -547 92.5 -529.5Q70 -512 57 -446H41L52 -700H500V-592L389 -398Q315 -267 294.5 -210.5Q274 -154 274.0 -103.0Q274 -52 304 -9L297 3Q269 10 235 10Q181 10 150.0 -19.5Q119 -49 119.0 -92.5Q119 -136 148.5 -188.5Q178 -241 277 -356Z" transform="matrix(0.151429 0 0 0.151429 35.791 162.000)"/><path d="M50 0C24 0 19 30 34 42C10 31 -4 51 4 72C10 90 32 92 44 76C43 88 39 96 33 100H67C61 96 57 88 56 76C68 92 90 90 96 72C104 51 90 31 66 42C81 30 76 0 50 0Z" transform="translate(133 192) scale(1.45)"/></g></svg>
