<svg xmlns="http://www.w3.org/2000/svg" width="250" height="350" viewBox="0 0 250 350"><title>9 of diamonds</title><rect width="250" height="350" rx="12" fill="#fff"/><g fill="#df292e"><path d="M519 -374Q519 -257 460.5 -162.0Q402 -67 299 -18Q217 21 94 21Q73 21 73 14Q73 7 91 7Q140 6 197 -22Q260 -53 306.0 -125.0Q352 -197 359 -276Q302 -228 240 -228Q150 -228 91.5 -286.0Q33 -344 33 -433Q33 -533 98.5 -599.5Q164 -666 262 -666Q339 -666 404 -623Q519 -546 519 -374ZM362 -406Q362 -498 344 -563Q321 -648 266 -648Q227 -648 211.0 -608.0Q195 -568 195 -471Q195 -261 286 -261Q326 -261 344.0 -303.5Q362 -346 362 -406Z" transform="matrix(0.159159 0 0 0.159159 36.748 155.000)"/><path d="M50 0L98 50L50 100L2 50Z" transform="translate(103 180) scale(1.15)"/></g></svg>
