<svg xmlns="http://www.w3.org/2000/svg" width="305" height="370" viewBox="0 0 305 370"><title>ace of spades</title><rect x="1" y="1" width="303" height="368" rx="21" fill="#fff" stroke="#e5e5e5" stroke-width="2"/><g fill="#252525"><path d="M432 -19 359 -235H161L84 -19H159V0H6V-19H53L308 -706H390L642 -19H688V0H361V-19ZM264 -519 170 -257H351Z" transform="matrix(0.150142 0 0 0.150142 41.099 162.000)"/><path d="M50 0C39 17 3 43 3 65C3 88 31 96 44 78C43 89 39 96 34 100H66C61 96 57 89 56 78C69 96 97 88 97 65C97 43 61 17 50 0Z" transform="translate(133 192) scale(1.45)"/></g></svg>
