<svg xmlns="http://www.w3.org/2000/svg" width="305" height="370" viewBox="0 0 305 370"><title>king of diamonds</title><rect x="1" y="1" width="303" height="368" rx="21" fill="#fff" stroke="#e5e5e5" stroke-width="2"/><g fill="#df292e"><path d="M25 -700H330V-681H275V-365L283 -367L565 -681H486V-700H661V-681H601L429 -489L669 -19H723V0H402V-19H449L284 -338L275 -336V-19H330V0H25V-19H80V-681H25Z" transform="matrix(0.121429 0 0 0.121429 12.964 105.000)"/><path d="M50 0L98 50L50 100L2 50Z" transform="translate(17 119) scale(.66)"/><path d="M50 0L98 50L50 100L2 50Z" transform="translate(118 185) scale(1.52)"/></g></svg>
